<svg id="ic_computer" xmlns="http://www.w3.org/2000/svg" xmlns:xlink="http://www.w3.org/1999/xlink" width="35.23" height="32.116" viewBox="0 0 42.23 32.116">
  <defs>
    <clipPath id="clip-path">
      <rect id="Rectangle_269" data-name="Rectangle 269" width="42.23" height="32.116" fill="none"/>
    </clipPath>
  </defs>
  <g id="Group_3262" data-name="Group 3262" clip-path="url(#clip-path)">
    <path id="Path_6389" data-name="Path 6389" d="M40.743,0H1.486A1.491,1.491,0,0,0,0,1.486V24.911A1.491,1.491,0,0,0,1.486,26.4H15.992l-.79,4.029H14.177a.845.845,0,1,0,0,1.689H28.053a.845.845,0,1,0,0-1.689H27.027l-.79-4.029H40.743a1.491,1.491,0,0,0,1.486-1.486V1.486A1.487,1.487,0,0,0,40.743,0M16.491,30.427l.8-4.084h7.644l.8,4.084Zm24.472-5.515a.224.224,0,0,1-.22.22H1.486a.224.224,0,0,1-.22-.22V1.482a.22.22,0,0,1,.22-.215H40.743a.22.22,0,0,1,.22.215Zm-20.27-.657a.422.422,0,1,1,.422.422.422.422,0,0,1-.422-.422m19.465-.735H2.072V2.291H40.158Z" fill="#256fa1"/>
  </g>
</svg>
