<svg id="ic_duplicate" xmlns="http://www.w3.org/2000/svg" width="17.154" height="23.154" viewBox="0 0 23.154 23.154">
  <g id="icon_content_copy_24px" data-name="icon/content/copy_24px">
    <rect id="Boundary" width="23.154" height="23.154" fill="none"/>
    <g id="_Color" data-name=" ↳Color" transform="translate(1.323 0.662)" fill="#505050">
      <path d="M17.757,21.831H6.268a2.042,2.042,0,0,1-2.09-1.985V5.954a2.042,2.042,0,0,1,2.09-1.984H17.757a2.041,2.041,0,0,1,2.089,1.984V19.847A2.041,2.041,0,0,1,17.757,21.831ZM6.268,5.954V19.847H17.757V5.954ZM2.089,15.877H0V1.985A2.041,2.041,0,0,1,2.089,0H14.623V1.985H2.089V15.876Z" stroke="none"/>
      <path d="M 17.75699996948242 21.83130073547363 L 6.267599582672119 21.83130073547363 C 5.115279674530029 21.83130073547363 4.177799701690674 20.94106101989746 4.177799701690674 19.84679985046387 L 4.177799701690674 5.953500270843506 C 4.177799701690674 4.859240531921387 5.115279674530029 3.969000339508057 6.267599582672119 3.969000339508057 L 17.75699996948242 3.969000339508057 C 18.9088191986084 3.969000339508057 19.84589958190918 4.859240531921387 19.84589958190918 5.953500270843506 L 19.84589958190918 19.84679985046387 C 19.84589958190918 20.94106101989746 18.9088191986084 21.83130073547363 17.75699996948242 21.83130073547363 Z M 6.267599582672119 5.953500270843506 L 6.267599582672119 19.84679985046387 L 17.75699996948242 19.84679985046387 L 17.75699996948242 5.953500270843506 L 6.267599582672119 5.953500270843506 Z M 2.088899850845337 15.8769006729126 L -2.090454103154116e-07 15.8769006729126 L -2.090454103154116e-07 1.984500408172607 C -2.090454103154116e-07 0.8902403712272644 0.9370797872543335 3.677368169974216e-07 2.088899850845337 3.677368169974216e-07 L 14.62319946289062 3.677368169974216e-07 L 14.62319946289062 1.984500408172607 L 2.088899850845337 1.984500408172607 L 2.088899850845337 15.8769006729126 Z" stroke="none" fill="#505050"/>
    </g>
  </g>
</svg>
