<svg id="ic_eye" xmlns="http://www.w3.org/2000/svg" width="19.705" height="12.893" viewBox="0 0 19.705 12.893">
  <path id="Path_6334" data-name="Path 6334" d="M93.351,180.123c-.236-.03-.565-.066-.893-.113-.242-.034-.484-.072-.723-.124-.163-.035-.32-.1-.479-.147-.136-.043-.273-.084-.407-.131s-.261-.1-.39-.15c-.086-.035-.17-.076-.255-.113-.17-.076-.343-.145-.51-.228q-.288-.144-.567-.308c-.242-.142-.484-.287-.718-.444-.2-.136-.4-.286-.59-.436-.209-.162-.417-.325-.62-.5s-.411-.348-.6-.536c-.327-.319-.651-.64-.962-.976-.268-.289-.518-.6-.77-.9-.175-.211-.343-.429-.506-.65-.131-.177-.253-.363-.374-.548a.189.189,0,0,1,.011-.236c.357-.455.7-.925,1.071-1.364a17.666,17.666,0,0,1,1.556-1.661c.26-.237.511-.483.776-.713.205-.178.424-.338.64-.5s.4-.308.614-.449.441-.273.664-.406c.142-.085.284-.169.43-.246s.3-.152.453-.222q.3-.136.6-.262c.089-.037.181-.065.272-.093.146-.044.292-.087.438-.127.176-.048.353-.093.53-.139a.56.56,0,0,1,.053-.018c.257-.042.512-.1.77-.12.346-.027.695-.039,1.042-.033a4.922,4.922,0,0,1,1.1.094c.235.058.477.081.712.135.166.037.327.1.49.148.106.034.212.07.317.107.2.072.411.138.612.222.174.073.34.166.51.25.149.074.3.144.448.225.177.1.351.2.524.311.13.08.259.163.386.25.155.106.31.213.459.328.27.206.542.41.8.631s.525.467.775.714c.318.316.633.637.934.97.265.292.513.6.763.908q.257.315.5.642c.131.177.252.363.374.548a.189.189,0,0,1-.011.243c-.34.406-.669.822-1.02,1.216-.387.434-.787.855-1.193,1.27-.24.245-.5.467-.754.7-.2.183-.413.363-.626.536-.144.117-.3.218-.449.327s-.292.218-.442.319c-.177.119-.358.229-.539.341-.135.084-.269.169-.408.245s-.3.156-.457.233c-.069.034-.138.068-.208.1-.175.079-.35.16-.527.234-.123.051-.249.095-.374.139-.143.051-.286.1-.43.147-.124.04-.248.083-.375.11-.218.047-.438.085-.657.125-.03.006-.063,0-.093.012A8.7,8.7,0,0,1,93.351,180.123Zm.45-1.453a5.01,5.01,0,1,0-4.74-5.143A4.865,4.865,0,0,0,93.8,178.671Z" transform="translate(-83.946 -167.23)" fill="#505050"/>
  <path id="Path_6335" data-name="Path 6335" d="M106.325,181.411a2.494,2.494,0,0,1,2.483-2.485,2.492,2.492,0,1,1-.019,4.985A2.484,2.484,0,0,1,106.325,181.411Z" transform="translate(-98.957 -174.98)" fill="#505050"/>
</svg>
