<svg id="ic_home" xmlns="http://www.w3.org/2000/svg" width="38.849" height="35" viewBox="0 0 48.849 45">
  <path id="Path_6396" data-name="Path 6396" d="M258.223,132.017c0-2.908-.01-5.817.011-8.725,0-.424-.164-.513-.6-.505-1.251.021-2.5,0-3.753.014a1.047,1.047,0,0,1-.819-.329,2.94,2.94,0,0,1,.231-4.482q5.2-4.578,10.413-9.151,5.072-4.457,10.144-8.914a3.983,3.983,0,0,1,5.372-.036q10.32,9.056,20.627,18.125a2.907,2.907,0,0,1,.163,4.471,1.3,1.3,0,0,1-.769.3c-1.266.03-2.533.026-3.8.005-.432-.006-.564.107-.563.5q.022,8.62.009,17.242a3.212,3.212,0,0,1-2.5,3.156,4.7,4.7,0,0,1-1.259.165c-3.389.013-6.777,0-10.165.016-.441,0-.56-.113-.559-.5.016-3.883.009-7.765.009-11.648,0-1.493-.839-2.238-2.526-2.239q-1.33,0-2.66,0c-1.69,0-2.524.741-2.524,2.24,0,3.883-.006,7.765.009,11.648,0,.382-.111.5-.553.5-3.373-.015-6.746-.005-10.119-.01-2.265,0-3.815-1.371-3.817-3.361Q258.221,136.255,258.223,132.017Z" transform="translate(-252.134 -98.864)" fill="#fff"/>
</svg>
