<svg id="ic_stress" xmlns="http://www.w3.org/2000/svg" width="28" height="37" viewBox="0 0 37 37">
  <path id="Path_52" data-name="Path 52" d="M871.571,1405.779a18.494,18.494,0,1,0,5.42,13.08A17.827,17.827,0,0,0,871.571,1405.779Zm-8.166,17.994a6.979,6.979,0,1,1,2.023-4.914A6.69,6.69,0,0,1,863.405,1423.774Z" transform="translate(-839.991 -1400.36)" fill="#fff"/>
  <path id="Path_53" data-name="Path 53" d="M844.791,1437.042h6.95a9.317,9.317,0,0,1,0-4.586h-6.95a12.337,12.337,0,0,0,0,4.586Z" transform="translate(-842.283 -1416.249)" fill="#d81f35"/>
  <path id="Path_54" data-name="Path 54" d="M850.021,1410.319a15.679,15.679,0,0,0-4.012,6.735h7.38a10.312,10.312,0,0,1,3.368-3.367v-7.452A16.331,16.331,0,0,0,850.021,1410.319Z" transform="translate(-843 -1403.297)" fill="#d81f35"/>
  <path id="Path_55" data-name="Path 55" d="M856.756,1449.58a8.767,8.767,0,0,1-3.368-3.368h-7.38a15.936,15.936,0,0,0,4.012,6.771,15.513,15.513,0,0,0,6.735,4.048Z" transform="translate(-843 -1422.969)" fill="#d81f35"/>
  <path id="Path_56" data-name="Path 56" d="M872.087,1412.11a9.323,9.323,0,0,1,4.586,0v-7.022a18.384,18.384,0,0,0-4.586,0Z" transform="translate(-855.88 -1402.652)" fill="#d81f35"/>
  <path id="Path_57" data-name="Path 57" d="M876.673,1454.809a9.3,9.3,0,0,1-4.586,0v7.022a18.462,18.462,0,0,0,4.586,0Z" transform="translate(-855.88 -1427.267)" fill="#d81f35"/>
  <path id="Path_58" data-name="Path 58" d="M885.843,1413.687a10.32,10.32,0,0,1,3.367,3.367h7.38a15.7,15.7,0,0,0-4.012-6.735,16.341,16.341,0,0,0-6.735-4.084Z" transform="translate(-862.6 -1403.297)" fill="#d81f35"/>
  <path id="Path_59" data-name="Path 59" d="M892.578,1452.983a15.956,15.956,0,0,0,4.012-6.771h-7.38a8.772,8.772,0,0,1-3.367,3.368v7.452A15.522,15.522,0,0,0,892.578,1452.983Z" transform="translate(-862.6 -1422.969)" fill="#d81f35"/>
  <path id="Path_60" data-name="Path 60" d="M901.39,1437.042a12.333,12.333,0,0,0,0-4.586h-6.95a9.319,9.319,0,0,1,0,4.586Z" transform="translate(-866.898 -1416.249)" fill="#d81f35"/>
</svg>
