<svg xmlns="http://www.w3.org/2000/svg" width="35.855" height="108.111" viewBox="0 0 63.855 118.111">
  <g id="logo_Taal" transform="translate(1.646 1.505)">
    <path id="Path_1" data-name="Path 1" d="M79.228,94.714a31.88,31.88,0,0,1-3.644-.789L65.366,90.911l-.6-4.738" transform="translate(-61.771 -28.171)" fill="none" stroke="#fff" stroke-linecap="round" stroke-linejoin="round" stroke-width="3"/>
    <path id="Path_2" data-name="Path 2" d="M66.061,137.21,65.6,158.4l-8.544.629" transform="translate(-43.29 -44.027)" fill="none" stroke="#fff" stroke-linecap="round" stroke-linejoin="round" stroke-width="3"/>
    <path id="Path_3" data-name="Path 3" d="M54.244,16.756c4.57,4.742,5.615,13.528,3.429,20.454A27.772,27.772,0,0,1,45.284,52.5a29.771,29.771,0,0,1-29.077,1.082,25.467,25.467,0,0,1-11.783-11.9,29.669,29.669,0,0,1-1.3-19.617A29.068,29.068,0,0,1,13.194,6.731C20.126,1.411,29.143.458,36.552,4.638s12.9,13.516,13.587,23.693" transform="translate(1.919 -2.031)" fill="none" stroke="#fff" stroke-linecap="round" stroke-width="3"/>
    <path id="Path_4" data-name="Path 4" d="M25.045,11.509A18.434,18.434,0,0,1,38.858,27.63" transform="translate(5.981 -4.975)" fill="none" stroke="#fff" stroke-linecap="round" stroke-linejoin="round" stroke-width="3"/>
    <path id="Path_5" data-name="Path 5" d="M64.1,58.742c-5.727,6.782-12.682,2.2-16.344-4.439" transform="translate(-34.913 -18.27)" fill="none" stroke="#fff" stroke-linecap="round" stroke-linejoin="round" stroke-width="3.113"/>
    <path id="Path_6" data-name="Path 6" d="M45.739,33.139a27.107,27.107,0,0,0-.057,6.671" transform="translate(-15 -11.695)" fill="none" stroke="#fff" stroke-linecap="round" stroke-width="3.113"/>
    <path id="Path_7" data-name="Path 7" d="M66.043,26.529a27.034,27.034,0,0,0-.057,6.67" transform="translate(-49.301 -9.642)" fill="none" stroke="#fff" stroke-linecap="round" stroke-width="3.113"/>
    <path id="Path_8" data-name="Path 8" d="M18.109,76.889a29.768,29.768,0,0,0,27.866-1.653l.043-.027a5.1,5.1,0,0,1,1.095,3.145l4.638,34.357a4.978,4.978,0,0,1-4.9,5.051H18.14a4.979,4.979,0,0,1-4.9-5.051l4.638-34.357A5.14,5.14,0,0,1,18.109,76.889Z" transform="translate(1.228 -24.765)" fill="none" stroke="#fff" stroke-width="3"/>
    <path id="Path_9" data-name="Path 9" d="M15.8,137.21l.457,21.189,8.544.629" transform="translate(26.41 -44.027)" fill="none" stroke="#fff" stroke-linecap="round" stroke-linejoin="round" stroke-width="3"/>
    <path id="Path_10" data-name="Path 10" d="M70.654,91.136s-9.4,19.126-32.551,11.718l-10.09-3.418-.489-4.72" transform="translate(-27.523 -29.713)" fill="none" stroke="#fff" stroke-linecap="round" stroke-linejoin="round" stroke-width="3"/>
  </g>
</svg>
