<svg id="Ic_need_help" data-name="Ic_need help" xmlns="http://www.w3.org/2000/svg" width="40" height="55" viewBox="0 0 55 55">
  <g id="Ellipse_1_copy_8" data-name="Ellipse 1 copy 8" fill="#ab061b" stroke="#fff" stroke-width="2">
    <circle cx="27.5" cy="27.5" r="27.5" stroke="none"/>
    <circle cx="27.5" cy="27.5" r="26.5" fill="none"/>
  </g>
  <path id="Path_157" data-name="Path 157" d="M124.981,713.606c.239-.034.479-.059.717-.1.931-.169,1.864-.322,2.792-.521,1.243-.267,2.483-.572,3.724-.862q1.684-.392,3.367-.787a18.736,18.736,0,0,1,4.243-.515c1.073,0,2.146-.049,3.218-.082a2.4,2.4,0,0,0,.539-.075c.493-.131.672-.429.68-1.166q.03-2.878.044-5.756c0-.566-.013-1.132-.027-1.7-.02-.833-.395-1.137-.863-1.164-.277-.016-.555,0-.832.009-1.03.028-2.061.063-3.091.087a2.577,2.577,0,0,1-2.051-.981A5.464,5.464,0,0,0,134.8,698.2a5.155,5.155,0,0,0-1.494-.109,14.3,14.3,0,0,0-4.587,1.21c-.806.316-1.612.637-2.412.988a3.171,3.171,0,0,1-2.509.019,15.725,15.725,0,0,0-2.056-.678,3.261,3.261,0,0,0-2.57.4,2.166,2.166,0,0,0-.61.637,1.8,1.8,0,0,0-.046,1.726,2.422,2.422,0,0,0,1.315,1.231c.982.376,1.972.7,2.956,1.066.966.36,1.928.744,2.891,1.122a.585.585,0,0,1,.26.216c-.4.111-.8.215-1.2.335-.677.2-1.354.406-2.028.628a1.3,1.3,0,0,1-1.114-.115,18.479,18.479,0,0,0-2.95-1.29,3.264,3.264,0,0,1-.935-.6c-.562-.478-1.1-1.021-1.655-1.512a6.832,6.832,0,0,1-1.562-2.052,9.037,9.037,0,0,0-1.728-2.467,1.2,1.2,0,0,0-1.034-.441c-.479.1-.754.638-.623,1.32a8.149,8.149,0,0,0,.4,1.464c.486,1.219,1.007,2.407,1.515,3.607a5.046,5.046,0,0,0,.985,1.388q1.361,1.555,2.744,3.07a7.461,7.461,0,0,0,1.8,1.276,47.519,47.519,0,0,0,4.687,2.663c.272.128.557.2.835.3Z" transform="translate(-100.579 -669.585)" fill="none" stroke="#fff" stroke-width="2"/>
</svg>
