<svg id="Ic_tablet" xmlns="http://www.w3.org/2000/svg" xmlns:xlink="http://www.w3.org/1999/xlink" width="32" height="27" viewBox="0 0 39 27">
  <defs>
    <clipPath id="clip-path">
      <rect id="Rectangle_267" data-name="Rectangle 267" width="27" height="39" transform="translate(0 0)" fill="none"/>
    </clipPath>
  </defs>
  <g id="Group_3259" data-name="Group 3259" transform="translate(0.059 27.353) rotate(-90)">
    <g id="Group_3258" data-name="Group 3258" transform="translate(0.353 -0.059)" clip-path="url(#clip-path)">
      <path id="Path_6385" data-name="Path 6385" d="M.751,0A.748.748,0,1,1,0,.749.748.748,0,0,1,.751,0" transform="translate(12.572 2.463)" fill="#256fa1" fill-rule="evenodd"/>
      <path id="Path_6386" data-name="Path 6386" d="M1.249,2.494A1.247,1.247,0,1,1,2.494,1.246,1.247,1.247,0,0,1,1.249,2.494" transform="translate(11.574 34.886)" fill="#256fa1" fill-rule="evenodd"/>
      <rect id="Rectangle_266" data-name="Rectangle 266" width="22.945" height="29.94" transform="translate(1.848 4.703)" fill="#256fa1"/>
      <path id="Path_6387" data-name="Path 6387" d="M24.816,0H2.619A2.607,2.607,0,0,0,0,2.594V36.812a2.607,2.607,0,0,0,2.619,2.594h22.2a2.607,2.607,0,0,0,2.619-2.594V2.594A2.607,2.607,0,0,0,24.816,0m1.122,36.812a1.113,1.113,0,0,1-1.122,1.1H2.619a1.113,1.113,0,0,1-1.122-1.1V2.594A1.113,1.113,0,0,1,2.619,1.5h22.2a1.113,1.113,0,0,1,1.122,1.1Z" transform="translate(-0.397 -0.031)" fill="#256fa1" fill-rule="evenodd"/>
    </g>
  </g>
</svg>
