<svg id="ic_tree" xmlns="http://www.w3.org/2000/svg" xmlns:xlink="http://www.w3.org/1999/xlink" width="15.465" height="38.004" viewBox="0 0 18.465 38.004">
  <defs>
    <clipPath id="clip-path">
      <rect id="Rectangle_270" data-name="Rectangle 270" width="18.465" height="38.004" fill="none"/>
    </clipPath>
  </defs>
  <g id="Group_3264" data-name="Group 3264" clip-path="url(#clip-path)">
    <path id="Path_6390" data-name="Path 6390" d="M3.885,32.952A3.632,3.632,0,1,1,7.516,29.32a3.632,3.632,0,0,1-3.631,3.632" transform="translate(-0.049 -4.954)" fill="#075e92"/>
    <circle id="Ellipse_22" data-name="Ellipse 22" cx="3.632" cy="3.632" r="3.632" transform="translate(0.204 20.733)" fill="none" stroke="#fff" stroke-width="0.505"/>
    <path id="Path_6391" data-name="Path 6391" d="M17.257,7.517a3.632,3.632,0,1,1,3.632-3.632,3.632,3.632,0,0,1-3.632,3.632" transform="translate(-2.628 -0.049)" fill="#075e92"/>
    <circle id="Ellipse_23" data-name="Ellipse 23" cx="3.632" cy="3.632" r="3.632" transform="translate(10.997 0.204)" fill="none" stroke="#fff" stroke-width="0.505"/>
    <path id="Path_6392" data-name="Path 6392" d="M4.109,45.1A3.632,3.632,0,1,1,7.74,41.465,3.632,3.632,0,0,1,4.109,45.1" transform="translate(-0.092 -7.297)" fill="#075e92"/>
    <circle id="Ellipse_24" data-name="Ellipse 24" cx="3.632" cy="3.632" r="3.632" transform="translate(0.385 30.536)" fill="none" stroke="#fff" stroke-width="0.505"/>
    <line id="Line_45" data-name="Line 45" x1="10.54" transform="translate(4.089 34.205)" fill="none" stroke="#075e92" stroke-width="2"/>
    <path id="Path_6393" data-name="Path 6393" d="M3.885,21.38a3.632,3.632,0,1,1,3.631-3.632A3.632,3.632,0,0,1,3.885,21.38" transform="translate(-0.049 -2.722)" fill="#075e92"/>
    <circle id="Ellipse_25" data-name="Ellipse 25" cx="3.632" cy="3.632" r="3.632" transform="translate(0.204 11.393)" fill="none" stroke="#fff" stroke-width="0.505"/>
    <line id="Line_46" data-name="Line 46" x1="10.519" transform="translate(4.11 14.355)" fill="none" stroke="#075e92" stroke-width="2"/>
    <line id="Line_47" data-name="Line 47" x1="10.519" transform="translate(4.11 24.494)" fill="none" stroke="#075e92" stroke-width="2"/>
    <line id="Line_48" data-name="Line 48" y2="31.149" transform="translate(14.629 3.836)" fill="none" stroke="#075e92" stroke-width="2"/>
  </g>
</svg>
