<svg id="ic_watch" xmlns="http://www.w3.org/2000/svg" xmlns:xlink="http://www.w3.org/1999/xlink" width="11.626" height="19.36" viewBox="0 0 11.626 19.36">
  <defs>
    <clipPath id="clip-path">
      <rect id="Rectangle_278" data-name="Rectangle 278" width="11.626" height="19.36" fill="none"/>
    </clipPath>
  </defs>
  <g id="Group_3277" data-name="Group 3277" clip-path="url(#clip-path)">
    <path id="Path_6394" data-name="Path 6394" d="M11.626,7.953V5.939H11.4a3,3,0,0,0-1.49-2.386c-.077-.054-.43-.355-.43-1.61V1.214A1.214,1.214,0,0,0,8.271,0H3.142A1.214,1.214,0,0,0,1.928,1.214v.728c0,1.255-.353,1.556-.43,1.61A3,3,0,0,0,0,6.152v7.055a3.012,3.012,0,0,0,1.55,2.631c.11.1.378.463.378,1.579v.728A1.214,1.214,0,0,0,3.142,19.36H8.271a1.214,1.214,0,0,0,1.214-1.214v-.728c0-1.129.284-1.492.4-1.592a3.007,3.007,0,0,0,1.529-2.619v-.716h.214V9.856h-.214v-1.9ZM2.55,1.942V1.214A.592.592,0,0,1,3.142.622H8.271a.592.592,0,0,1,.591.591v.728a4.488,4.488,0,0,0,.154,1.264A2.974,2.974,0,0,0,8.4,3.144H3.009a2.974,2.974,0,0,0-.612.062A4.488,4.488,0,0,0,2.55,1.942M8.862,17.417v.728a.592.592,0,0,1-.591.591H3.142a.592.592,0,0,1-.591-.591v-.728A4.584,4.584,0,0,0,2.4,16.156a3.1,3.1,0,0,0,.608.06H8.4a3.1,3.1,0,0,0,.61-.06,4.494,4.494,0,0,0-.151,1.262m1.928-4.21A2.384,2.384,0,0,1,9.682,15.22c-.054.035-.108.066-.164.1a2.375,2.375,0,0,1-1.114.276H3.009A2.367,2.367,0,0,1,1.9,15.317q-.075-.04-.149-.087h0A2.388,2.388,0,0,1,.622,13.207V6.152A2.389,2.389,0,0,1,3.009,3.766H8.4A2.375,2.375,0,0,1,9.62,4.1l.021.012a2.386,2.386,0,0,1,1.15,2.04ZM3.112,4.285A1.974,1.974,0,0,0,1.141,6.256V13.1a1.974,1.974,0,0,0,1.971,1.971H8.3A1.974,1.974,0,0,0,10.271,13.1V6.256A1.974,1.974,0,0,0,8.3,4.285Z" transform="translate(0 0)" fill="#256fa1"/>
  </g>
</svg>
